<!DOCTYPE svg PUBLIC "-//W3C//DTD SVG 1.1//EN" "http://www.w3.org/Graphics/SVG/1.1/DTD/svg11.dtd">
<!-- Uploaded to: SVG Repo, www.svgrepo.com, Transformed by: SVG Repo Mixer Tools -->
<svg fill="#000000" width="800px" height="800px" viewBox="0 0 24 24" xmlns="http://www.w3.org/2000/svg">
<g id="SVGRepo_bgCarrier" stroke-width="0"/>
<g id="SVGRepo_tracerCarrier" stroke-linecap="round" stroke-linejoin="round"/>
<g id="SVGRepo_iconCarrier"> <path fill-rule="evenodd" d="M19,17 L19,15 L21,15 L21,17 L23,17 L23,19 L21,19 L21,21 L19,21 L19,19 L17,19 L17,17 L19,17 Z M3,10 L3,17 L14,17 L14,19 L2.81818182,19 C1.81402773,19 1,18.1045695 1,17 L1,5 C1,3.8954305 1.81402773,3 2.81818182,3 L21.1818182,3 C22.1859723,3 23,3.8954305 23,5 L23,13 L21,13 L21,10 L3,10 Z M3,8 L21,8 L21,5 L3,5 L3,8 Z"/> </g>
</svg>